<?xml version="1.0" standalone="no"?><!DOCTYPE svg PUBLIC "-//W3C//DTD SVG 1.1//EN" "http://www.w3.org/Graphics/SVG/1.1/DTD/svg11.dtd">
<svg t="1718353542383" class="icon" viewBox="0 0 1024 1024" version="1.1" xmlns="http://www.w3.org/2000/svg"
     p-id="10399"
     width="200" height="200"><path d="M512 85.333333C276.266667 85.333333 85.333333 276.266667 85.333333 512s190.933333 426.666667 426.666667 426.666667 426.666667-190.933333 426.666667-426.666667S747.733333 85.333333 512 85.333333z m0 128c70.613333 0 128 57.386667 128 128 0 70.826667-57.386667 128-128 128s-128-57.173333-128-128c0-70.613333 57.386667-128 128-128z m0 605.866667c-106.88 0-200.746667-54.613333-256-137.386667 1.066667-84.693333 170.88-131.413333 256-131.413333s254.72 46.72 256 131.413333c-55.253333 82.773333-149.12 137.386667-256 137.386667z" p-id="10400" fill="#ffffff"></path></svg>