<?xml version="1.0" encoding="UTF-8"?>
<svg id="_图层_2" data-name="图层 2" xmlns="http://www.w3.org/2000/svg" viewBox="0 0 22 14">
  <defs>
    <style>
      .cls-1 {
        fill: #ff0;
      }
    </style>
  </defs>
  <g id="design">
    <path class="cls-1" d="m22,4V1c0-.55-.45-1-1-1h-8.88c0,.62-.5,1.12-1.12,1.12s-1.12-.5-1.12-1.12H1C.45,0,0,.45,0,1v3c1.66,0,3,1.34,3,3s-1.34,3-3,3v3c0,.55.45,1,1,1h8.88c0-.62.5-1.12,1.12-1.12s1.12.5,1.12,1.12h8.88c.55,0,1-.45,1-1v-3c-1.66,0-3-1.34-3-3s1.34-3,3-3Zm-11,7.62c-.62,0-1.12-.5-1.12-1.12s.5-1.12,1.12-1.12,1.12.5,1.12,1.12-.5,1.12-1.12,1.12Zm0-3.5c-.62,0-1.12-.5-1.12-1.12s.5-1.12,1.12-1.12,1.12.5,1.12,1.12-.5,1.12-1.12,1.12Zm0-3.5c-.62,0-1.12-.5-1.12-1.12s.5-1.12,1.12-1.12,1.12.5,1.12,1.12-.5,1.12-1.12,1.12Z"/>
  </g>
</svg>