<?xml version="1.0" standalone="no"?><!DOCTYPE svg PUBLIC "-//W3C//DTD SVG 1.1//EN" "http://www.w3.org/Graphics/SVG/1.1/DTD/svg11.dtd">
<svg t="1718354623979" class="icon" viewBox="0 0 1024 1024" version="1.1" xmlns="http://www.w3.org/2000/svg"
     p-id="28408"
     width="200" height="200"><path d="M546.14016 890.4192a110.40768 110.40768 0 0 1-58.9824-13.4144c-171.2128-98.4576-278.8352-243.712-319.3344-437.2992a740.352 740.352 0 0 1-12.6464-109.056 99.18464 99.18464 0 0 1 46.8992-91.3408c19.3024-13.056 39.424-24.9344 59.6992-36.5056a78.65344 78.65344 0 0 1 105.2672 24.9344q23.9616 36.5568 45.4656 74.752a78.848 78.848 0 0 1-25.344 104.52992c-11.264 7.6288-23.1424 14.2848-34.7136 21.504a27.17696 27.17696 0 0 0-13.2096 35.4816 464.9984 464.9984 0 0 0 114.6368 188.2112 26.7264 26.7264 0 0 0 36.864 4.608c10.496-6.2464 20.8384-12.8 31.3344-18.9952a79.75936 79.75936 0 0 1 111.616 27.5456q19.88608 32.256 39.3728 64.8192a79.75936 79.75936 0 0 1-26.7776 113.1008c-16.9472 10.6496-34.0992 20.8896-51.2 31.232a102.30784 102.30784 0 0 1-48.9984 15.8208z" p-id="28409" fill="#ffffff"></path><path d="M868.95616 508.7744c-2.8672 22.9888-5.4272 47.5648-9.1136 71.936a25.82528 25.82528 0 0 1-31.488 22.2208 26.1632 26.1632 0 0 1-20.48-32 312.32 312.32 0 0 0-14.08-174.592c-42.3936-107.8784-120.4736-175.4112-233.472-202.24a27.79136 27.79136 0 0 1-23.8592-26.0608 26.73664 26.73664 0 0 1 20.2752-26.3168 28.42624 28.42624 0 0 1 12.288-0.2048 373.248 373.248 0 0 1 292.4544 301.7728c3.4816 21.0432 4.864 42.4448 7.424 65.536z" p-id="28410" fill="#ffffff"></path><path d="M761.4976 511.2832c-1.9456 14.6944-3.7376 32.9728-6.9632 50.944a25.42592 25.42592 0 0 1-24.6784 20.0192 25.78432 25.78432 0 0 1-25.6-17.7152 39.7312 39.7312 0 0 1-0.8192-17.2032A213.12512 213.12512 0 0 0 538.8288 298.8032a27.648 27.648 0 0 1-23.552-24.576 25.02656 25.02656 0 0 1 15.5136-26.0608 35.42016 35.42016 0 0 1 18.5856-1.5872 266.82368 266.82368 0 0 1 208.2304 221.184c1.9456 13.1584 2.4064 26.5216 3.8912 43.4688z" p-id="28411" fill="#ffffff"></path><path d="M660.93056 519.5264c-0.5632 6.0416-0.8192 13.8752-2.1504 21.504a26.70592 26.70592 0 0 1-29.696 23.04 26.42944 26.42944 0 0 1-22.8864-29.696 116.29568 116.29568 0 0 0-3.0208-46.2336 104.448 104.448 0 0 0-82.8416-75.6736c-15.36-3.2768-24.6784-11.4688-25.9072-24.064-1.9456-19.3536 14.1312-32.6656 34.816-28.672a155.87328 155.87328 0 0 1 73.1648 34.0992 160.98304 160.98304 0 0 1 58.4704 125.7984z" p-id="28412" fill="#ffffff"></path></svg>