<?xml version="1.0" encoding="UTF-8"?>
<svg id="_图层_2" data-name="图层 2" xmlns="http://www.w3.org/2000/svg" viewBox="0 0 21 21">
  <defs>
    <style>
      .cls-1 {
        fill: #fff;
      }
    </style>
  </defs>
  <g id="design">
    <g>
      <path class="cls-1" d="m15.5,0H5.5C2.47,0,0,2.47,0,5.5v10c0,3.03,2.47,5.5,5.5,5.5h10c3.03,0,5.5-2.47,5.5-5.5V5.5c0-3.03-2.47-5.5-5.5-5.5Zm4.5,15.5c0,2.48-2.02,4.5-4.5,4.5H5.5c-2.48,0-4.5-2.02-4.5-4.5V5.5C1,3.02,3.02,1,5.5,1h10c2.48,0,4.5,2.02,4.5,4.5v10Z"/>
      <path class="cls-1" d="m10.5,10c-.28,0-.5.22-.5.5v4c0,.28.22.5.5.5s.5-.22.5-.5v-4c0-.28-.22-.5-.5-.5Z"/>
      <path class="cls-1" d="m10.88,5.58c-.24-.1-.52-.1-.76,0-.12.05-.23.12-.33.21-.09.1-.16.21-.21.33-.05.12-.08.25-.08.38,0,.06,0,.13.02.19,0,.07.03.13.06.19.02.06.05.12.09.17.04.06.08.11.12.16.19.18.45.29.71.29.13,0,.26-.03.38-.08.13-.05.24-.12.33-.21.04-.05.09-.1.12-.16.04-.05.07-.11.09-.17.03-.06.05-.12.06-.19.02-.06.02-.13.02-.19,0-.26-.11-.52-.29-.71-.09-.09-.2-.16-.33-.21Z"/>
    </g>
  </g>
</svg>