<?xml version="1.0" encoding="UTF-8"?>
<svg id="_图层_2" data-name="图层 2" xmlns="http://www.w3.org/2000/svg" viewBox="0 0 17 13">
  <defs>
    <style>
      .cls-1 {
        fill: #000;
      }
    </style>
  </defs>
  <g id="design">
    <g>
      <path class="cls-1" d="m.5,1h16c.28,0,.5-.22.5-.5s-.22-.5-.5-.5H.5C.22,0,0,.22,0,.5s.22.5.5.5Z"/>
      <path class="cls-1" d="m16.5,6H.5c-.28,0-.5.22-.5.5s.22.5.5.5h16c.28,0,.5-.22.5-.5s-.22-.5-.5-.5Z"/>
      <path class="cls-1" d="m16.5,12H.5c-.28,0-.5.22-.5.5s.22.5.5.5h16c.28,0,.5-.22.5-.5s-.22-.5-.5-.5Z"/>
    </g>
  </g>
</svg>