<?xml version="1.0" encoding="UTF-8"?>
<svg id="_图层_2" data-name="图层 2" xmlns="http://www.w3.org/2000/svg" viewBox="0 0 55.02 40">
  <defs>
    <style>
      .cls-1 {
        fill: #fff;
      }
    </style>
  </defs>
  <g id="design">
    <g>
      <polygon class="cls-1" points=".25 1.75 .32 1.75 3.58 1.75 3.58 9.79 3.81 9.79 3.81 10.02 5.01 10.02 5.01 9.79 5.24 9.79 5.24 1.75 8.79 1.75 8.79 1.52 9.02 1.52 9.02 .32 8.79 .32 8.79 .09 .32 .09 .25 .09 .25 .32 .02 .32 .02 .4 .02 1.45 .02 1.52 .25 1.52 .25 1.75"/>
      <path class="cls-1" d="m24.06,10.12h1.2v-.23h.23v-4.07l4.11,4.07h0s.23,0,.23,0v.23h2.02v-.23h0l-4.34-4.39L31.33.42v-.23h-1.83v.23h-.23s-2.97,3.91-2.97,3.91c-.13-.13-.27-.27-.42-.41-.15-.14-.28-.28-.42-.42V.42h-.23v-.23h-1.19v.23h-.23v9.47h.23v.23Z"/>
      <polygon class="cls-1" points="37.4 5.63 35.84 5.63 35.84 5.86 35.61 5.86 35.61 6.79 35.84 6.79 35.84 7.02 37.4 7.02 37.4 7.41 35.84 7.41 35.84 7.63 35.61 7.63 35.61 8.56 35.84 8.56 35.84 8.79 37.4 8.79 37.4 9.89 37.63 9.89 37.63 10.12 39.1 10.12 39.1 9.89 39.33 9.89 39.33 8.79 41.06 8.79 41.06 8.56 41.29 8.56 41.29 7.63 41.06 7.63 41.06 7.41 39.33 7.41 39.33 7.02 41.06 7.02 41.06 6.79 41.29 6.79 41.29 5.86 41.06 5.86 41.06 5.63 39.33 5.63 39.33 5.2 42.63 .42 42.63 .19 40.97 .19 40.97 .42 40.73 .42 40.73 .42 38.42 3.68 36.13 .41 36.13 .42 35.89 .42 35.89 .19 34.11 .19 34.11 .42 37.4 5.2 37.4 5.63"/>
      <polygon class="cls-1" points="41.58 14.83 41.58 15.07 41.35 15.07 41.35 24.54 41.58 24.54 41.58 24.77 42.75 24.77 42.75 24.54 42.98 24.54 42.98 15.07 42.75 15.07 42.75 14.83 41.58 14.83"/>
      <path class="cls-1" d="m27.32,24.58h.23v-9.47h-.23v-.23h-1.24v.23h-.23v8.02h-3.34c-.1,0-.22-.04-.34-.12s-.24-.18-.35-.29c-.11-.11-.2-.23-.27-.35-.07-.12-.11-.22-.11-.3v-6.97h-.23v-.23h-1.23v.23h-.23v6.95c0,.23.05.47.15.74.1.27.25.53.44.77.19.25.41.47.66.67.25.2.53.34.83.42.08.03.19.06.32.09.13.03.22.05.27.05h4.88v-.23Z"/>
      <path class="cls-1" d="m37.78,20.05c.2-.29.35-.6.45-.93.1-.33.15-.65.15-.96s-.04-.6-.12-.91c-.08-.31-.21-.59-.39-.87-.18-.27-.41-.52-.68-.75-.28-.23-.61-.42-1.01-.57-.05-.02-.11-.04-.2-.06-.08-.02-.17-.04-.25-.06-.08-.02-.16-.03-.23-.04-.07,0-.11-.01-.13-.01h-4.19v.23h-.23v9.47h.23v.23h1.2v-.23h.23v-3.15h2.85s.12,0,.22-.03.18-.05.25-.07c.42-.1.79-.27,1.1-.5.31-.23.57-.49.77-.78Zm-1.18-1.36c-.07.18-.17.35-.29.51-.12.16-.27.29-.44.39-.17.1-.36.15-.57.15h-2.7v-3.17h2.7s.11.01.2.04c.08.02.15.04.2.06.19.07.35.16.48.27.13.12.24.25.32.39s.14.28.17.43c.03.15.05.28.05.4,0,.17-.04.35-.11.53Z"/>
      <path class="cls-1" d="m12.44,39.26v.23h1.41v-.23h.23l.59-1.33h3.75l.59,1.33h0s.23,0,.23,0v.23h1.41v-.23h0l-4.1-9.66-4.1,9.66Zm2.93-3l1.17-2.75,1.17,2.75h-2.34Z"/>
      <polygon class="cls-1" points="43.92 29.56 37.21 29.56 37.21 29.79 36.98 29.79 36.98 39.26 37.21 39.26 37.21 39.49 43.92 39.49 43.92 39.26 44.15 39.26 44.15 38.03 43.92 38.03 43.92 37.8 38.63 37.8 38.63 35.15 42.39 35.15 42.39 34.92 42.62 34.92 42.62 33.65 42.39 33.65 42.39 33.42 38.63 33.42 38.63 31.24 43.92 31.24 43.92 31.01 44.15 31.01 44.15 29.79 43.92 29.79 43.92 29.56"/>
      <polygon class="cls-1" points="23.26 29.6 23.26 39.26 23.49 39.26 23.49 39.49 24.71 39.49 24.71 39.26 24.94 39.26 24.94 34.21 27.9 37.62 30.81 34.17 30.81 39.26 31.05 39.26 31.05 39.49 32.28 39.49 32.28 39.26 32.51 39.26 32.51 29.6 27.87 35.01 23.26 29.6"/>
      <polygon class="cls-1" points="8.96 15.04 8.96 16.09 8.96 16.17 9.19 16.17 9.19 16.4 9.26 16.4 12.52 16.4 12.52 24.44 12.75 24.44 12.75 24.67 13.95 24.67 13.95 24.44 14.18 24.44 14.18 16.4 17.73 16.4 17.73 16.17 17.96 16.17 17.96 14.97 17.73 14.97 17.73 14.74 9.26 14.74 9.19 14.74 9.19 14.97 8.96 14.97 8.96 15.04"/>
      <path class="cls-1" d="m10.58,5.74c.05.46.17.91.35,1.34.25.6.6,1.13,1.05,1.58.45.46.97.81,1.58,1.08.43.19.88.3,1.36.36v.23h1.2v-.23c.46-.05.9-.16,1.32-.34.6-.25,1.13-.6,1.58-1.05.45-.45.81-.97,1.07-1.58.19-.43.3-.89.36-1.37h0s.23,0,.23,0v-1.2h-.23v.02c-.05-.46-.17-.91-.34-1.34-.25-.61-.6-1.13-1.04-1.58-.44-.45-.96-.81-1.57-1.07-.43-.19-.89-.3-1.37-.36v-.22h-1.2v.23c-.48.05-.93.17-1.36.36-.61.26-1.13.62-1.58,1.07-.45.45-.8.98-1.05,1.58-.18.43-.29.88-.35,1.34v-.02h-.23v1.2h.23v-.02Zm1.48-1.18h.23c.04-.22.11-.43.2-.64.17-.39.41-.74.71-1.04.3-.3.65-.53,1.04-.7.22-.1.45-.16.68-.21h-.02v-.23h1.2v.23h-.02c.24.04.46.11.68.21.39.17.74.41,1.04.7.3.3.54.64.71,1.04.09.21.16.43.2.65h0s.23,0,.23,0v1.2h-.23c-.05.24-.12.46-.22.68-.18.39-.43.74-.73,1.03-.31.29-.66.52-1.05.68-.21.09-.43.15-.66.19h.03v.23h-1.2v-.23h.02c-.24-.04-.47-.11-.69-.21-.39-.17-.74-.41-1.04-.7-.3-.3-.54-.64-.71-1.04-.09-.21-.16-.42-.2-.64h0s-.23,0-.23,0v-1.2Z"/>
      <path class="cls-1" d="m49.2,10.1v.23h1.2v-.23c.46-.05.9-.16,1.32-.34.6-.25,1.13-.6,1.58-1.05.45-.45.81-.97,1.07-1.58.19-.43.3-.89.36-1.37h0s.23,0,.23,0v-1.2h-.23v.02c-.05-.46-.17-.91-.34-1.34-.25-.61-.6-1.13-1.04-1.58-.44-.45-.96-.81-1.57-1.07-.43-.19-.89-.3-1.37-.36v-.22h-1.2v.23c-.48.05-.93.17-1.36.36-.61.26-1.13.62-1.58,1.07-.45.45-.8.98-1.05,1.58-.18.43-.29.88-.35,1.34v-.02h-.23v1.2h.23v-.02c.05.46.17.91.35,1.34.25.6.6,1.13,1.05,1.58.45.46.97.81,1.58,1.08.43.19.88.3,1.36.36Zm-2.41-3.7c-.09-.21-.16-.42-.2-.64h0s-.23,0-.23,0v-1.2h.23c.04-.22.11-.43.2-.64.17-.39.41-.74.71-1.04.3-.3.65-.53,1.04-.7.22-.1.45-.16.68-.21h-.02v-.23h1.2v.23h-.02c.24.04.46.11.68.21.39.17.74.41,1.04.7.3.3.54.64.71,1.04.09.21.16.43.2.65h0s.23,0,.23,0v1.2h-.23c-.05.24-.12.46-.22.68-.18.39-.43.74-.73,1.03-.31.29-.66.52-1.05.68-.21.09-.43.15-.66.19h.03v.23h-1.2v-.23h.02c-.24-.04-.47-.11-.69-.21-.39-.17-.74-.41-1.04-.7-.3-.3-.54-.64-.71-1.04Z"/>
      <path class="cls-1" d="m54.05,34.7c-.35-.28-.89-.51-1.6-.68l-.58-.14v-2.69c.06.02.12.05.18.07.41.21.67.55.78.99h0s.23,0,.23,0v.23h1.26v-.23h.21c-.1-.8-.45-1.44-1.05-1.88-.47-.35-1.01-.58-1.61-.7v-.37h-.23v-.23h-1.2v.23h-.23v.33c-.82.1-1.47.36-1.93.78-.6.54-.9,1.24-.9,2.06,0,.91.3,1.56.92,1.98.35.24,1,.48,1.91.69v2.88c-.4-.1-.72-.28-.94-.55-.14-.18-.25-.42-.32-.72h0s-.23.01-.23.01v-.23h-1.27v.23h-.21c.08.79.41,1.43,1.01,1.91.51.4,1.17.66,1.96.77v.32h.23v.23h1.2v-.23h.23v-.3c.84-.1,1.53-.36,2.03-.8.64-.55.97-1.26.97-2.1s-.27-1.44-.81-1.87Zm-3.85-1.23c-.33-.09-.57-.18-.7-.26-.35-.19-.52-.49-.52-.88,0-.42.18-.75.52-.98.2-.13.43-.22.71-.27v2.4Zm2.05,4.49c-.11.04-.24.07-.38.1v-2.52c.35.1.63.21.83.34.32.2.48.48.48.85,0,.6-.31,1.02-.93,1.24Z"/>
      <path class="cls-1" d="m4.55,25.27v-.23h.23v-.3c.84-.1,1.53-.36,2.03-.8.64-.55.97-1.26.97-2.1s-.27-1.44-.81-1.87c-.35-.28-.89-.51-1.6-.68l-.58-.14v-2.69c.06.02.12.05.18.07.41.21.67.55.78.99h0s.23,0,.23,0v.23h1.26v-.23h.21c-.1-.8-.45-1.44-1.05-1.88-.47-.35-1.01-.58-1.61-.7v-.37h-.23v-.23h-1.2v.23h-.23v.33c-.82.1-1.47.36-1.93.78-.6.54-.9,1.24-.9,2.06,0,.91.3,1.56.92,1.98.35.24,1,.48,1.91.69v2.88c-.4-.1-.72-.28-.94-.55-.14-.18-.25-.42-.32-.72h0s-.23.01-.23.01v-.23H.36v.23h-.21c.08.79.41,1.43,1.01,1.91.51.4,1.17.66,1.96.77v.32h.23v.23h1.2Zm.23-4.46c.35.1.63.21.83.34.32.2.48.48.48.85,0,.6-.31,1.02-.93,1.24-.11.04-.24.07-.38.1v-2.52Zm-1.66-2.06c-.33-.09-.57-.18-.7-.26-.35-.19-.52-.49-.52-.88,0-.42.18-.75.52-.98.2-.13.43-.22.71-.27v2.4Z"/>
      <path class="cls-1" d="m54.8,19.22c-.03-.23-.07-.47-.13-.71-.11-.44-.29-.87-.54-1.27s-.57-.79-.96-1.13c-.39-.35-.86-.64-1.4-.89-.05-.03-.14-.06-.28-.11-.14-.04-.29-.08-.45-.13-.16-.04-.32-.08-.47-.11-.15-.03-.27-.04-.35-.04h-3.54v.23h-.23v9.47h.23v.23h3.54s.09,0,.18-.01c.09,0,.19-.03.31-.05.12-.02.23-.05.35-.07.12-.02.21-.05.29-.08.61-.18,1.14-.45,1.58-.8.44-.36.8-.75,1.08-1.19.28-.44.49-.89.63-1.37.07-.26.13-.52.16-.77h.23v-1.2h-.22Zm-1.47,1.2h-.23c-.05.24-.12.47-.22.7-.18.4-.43.75-.73,1.04-.31.29-.66.52-1.06.68-.4.16-.82.25-1.25.25h-1.75v-6.56h1.82c.46,0,.89.09,1.29.27.4.18.74.43,1.04.73.29.31.52.66.68,1.05.09.21.15.42.19.64h.23v1.2Z"/>
      <path class="cls-1" d="m9.48,34.68h-4.48v.23h-.23v.85h.23v.23h3.07c-.17.36-.37.65-.61.89-.24.23-.49.42-.76.55-.27.13-.54.22-.8.27s-.51.08-.73.08c-.43,0-.85-.08-1.24-.25s-.74-.4-1.05-.7c-.31-.3-.55-.64-.73-1.03-.1-.21-.16-.43-.21-.66h-.23v-1.2h.23c.04-.23.11-.45.21-.67.18-.39.42-.74.73-1.03.31-.29.66-.52,1.05-.69s.81-.25,1.24-.25c.48,0,.93.09,1.37.27.37.16.74.45,1.12.87h0s.23,0,.23,0v.23h1.78v-.22c-.21-.48-.48-.89-.8-1.24-.37-.4-.77-.72-1.2-.96-.43-.24-.87-.41-1.3-.52-.44-.11-.83-.16-1.19-.16-.7,0-1.36.13-1.97.39-.61.26-1.13.62-1.58,1.07-.45.45-.8.98-1.05,1.58-.18.42-.29.86-.34,1.32h-.23v1.2h.23c.05.46.16.9.34,1.32.25.6.6,1.13,1.05,1.58.45.46.97.81,1.58,1.08.61.26,1.26.39,1.97.39.25,0,.52-.02.8-.06.28-.04.55-.11.83-.2.28-.09.55-.22.82-.37.27-.15.52-.34.77-.56v.95h.23v.23h.88v-.23h.23v-4.36h-.23v-.23Z"/>
    </g>
  </g>
</svg>