<?xml version="1.0" encoding="UTF-8"?>
<svg id="_图层_2" data-name="图层 2" xmlns="http://www.w3.org/2000/svg" viewBox="0 0 21 22.33">
  <defs>
    <style>
      .cls-1 {
        fill: #fff;
      }
    </style>
  </defs>
  <g id="design">
    <g>
      <path class="cls-1" d="m10.5,1.67c2.96,0,5.69,1.36,7.48,3.67h-4.36c-.28,0-.5.22-.5.5s.22.5.5.5h5.33s0,0,0,0c.06,0,.12-.01.19-.04,0,0,0,0,0,0,.02-.01.05-.01.07-.03.03-.02.05-.05.08-.07,0,0,0,0,0,0,.04-.04.08-.09.1-.15,0,0,0-.01,0-.02.02-.05.03-.11.03-.16,0,0,0-.01,0-.02V.5c0-.28-.22-.5-.5-.5s-.5.22-.5.5v3.83c-1.98-2.31-4.85-3.67-7.96-3.67C4.71.67,0,5.38,0,11.17c0,.28.22.5.5.5s.5-.22.5-.5C1,5.93,5.26,1.67,10.5,1.67Z"/>
      <path class="cls-1" d="m20.5,10.67c-.28,0-.5.22-.5.5,0,5.24-4.26,9.5-9.5,9.5-2.96,0-5.69-1.36-7.48-3.67h4.36c.28,0,.5-.22.5-.5s-.22-.5-.5-.5H2.04s-.03,0-.04,0c-.03,0-.06.01-.1.02-.03,0-.06.02-.09.04-.01,0-.03,0-.04.01-.02,0-.02.03-.04.04-.03.02-.05.04-.07.07-.02.02-.04.05-.05.08-.02.03-.03.06-.04.09-.01.03-.02.07-.02.1,0,.02-.01.03-.01.05v5.33c0,.28.22.5.5.5s.5-.22.5-.5v-3.83c1.98,2.31,4.86,3.67,7.96,3.67,5.79,0,10.5-4.71,10.5-10.5,0-.28-.22-.5-.5-.5Z"/>
    </g>
  </g>
</svg>