<?xml version="1.0" encoding="UTF-8"?>
<svg id="_图层_2" data-name="图层 2" xmlns="http://www.w3.org/2000/svg" viewBox="0 0 24 13.55">
  <defs>
    <style>
      .cls-1 {
        fill: #fff;
      }
    </style>
  </defs>
  <g id="design">
    <path class="cls-1" d="m23.36,2.07c-.4-.26-.9-.29-1.34-.09l-3.94,1.82c-1.11-2.24-3.41-3.79-6.08-3.79-.98,0-1.91.21-2.75.59-.02,0-.03.02-.05.02-1.43.65-2.58,1.78-3.28,3.18L1.98,1.98c-.43-.2-.93-.17-1.34.09-.4.26-.64.7-.64,1.18v7.06c0,.48.24.92.64,1.18.23.15.49.22.75.22.2,0,.4-.04.58-.13l3.94-1.82c1.11,2.24,3.41,3.79,6.08,3.79.98,0,1.91-.21,2.75-.59.02,0,.04-.02.05-.03,1.42-.65,2.58-1.78,3.27-3.18l3.94,1.82c.19.09.39.13.58.13.26,0,.52-.07.75-.22.4-.26.64-.7.64-1.18V3.25c0-.48-.24-.92-.64-1.18ZM5.55,8.83l-3.98,1.83c-.18.08-.32,0-.38-.03-.05-.04-.18-.14-.18-.33V3.25c0-.2.13-.3.18-.33.06-.04.2-.11.38-.03l3.98,1.83c-.21.65-.32,1.34-.32,2.06s.11,1.41.32,2.06Zm6.45,3.72c-3.19,0-5.78-2.59-5.78-5.78,0-.58.09-1.15.25-1.68l7.21,7.2c-.53.16-1.1.25-1.68.25Zm2.68-.66l-7.79-7.79c.55-1.04,1.4-1.89,2.43-2.43l7.79,7.79c-.55,1.04-1.4,1.89-2.43,2.43Zm2.84-3.43L10.32,1.25c.53-.16,1.1-.25,1.68-.25,3.19,0,5.78,2.59,5.78,5.78,0,.58-.09,1.15-.25,1.68Zm5.48,1.85c0,.2-.13.3-.18.33-.06.04-.2.11-.38.03l-3.98-1.83c.21-.65.32-1.34.32-2.06s-.11-1.41-.32-2.06l3.98-1.83c.18-.08.33,0,.38.03s.18.14.18.33v7.06Z"/>
  </g>
</svg>