<?xml version="1.0" encoding="UTF-8"?>
<svg id="_图层_2" data-name="图层 2" xmlns="http://www.w3.org/2000/svg" viewBox="0 0 21 19">
  <defs>
    <style>
      .cls-1 {
        fill: #fff;
      }
    </style>
  </defs>
  <g id="design">
    <g>
      <path class="cls-1" d="m19.5,5h-.5v-2.5c0-1.38-1.12-2.5-2.5-2.5H2.5C1.12,0,0,1.12,0,2.5v14c0,1.38,1.12,2.5,2.5,2.5h14c1.38,0,2.5-1.12,2.5-2.5v-2.5h.5c.83,0,1.5-.67,1.5-1.5v-6c0-.83-.67-1.5-1.5-1.5Zm-1.5,11.5c0,.83-.67,1.5-1.5,1.5H2.5c-.83,0-1.5-.67-1.5-1.5V2.5c0-.83.67-1.5,1.5-1.5h14c.83,0,1.5.67,1.5,1.5v2.5h-4.5c-2.48,0-4.5,2.02-4.5,4.5s2.02,4.5,4.5,4.5h4.5v2.5Zm2-4c0,.28-.22.5-.5.5h-6c-1.93,0-3.5-1.57-3.5-3.5s1.57-3.5,3.5-3.5h6c.28,0,.5.22.5.5v6Z"/>
      <path class="cls-1" d="m12.65,9.15c-.1.09-.15.22-.15.35,0,.07,0,.13.04.19.02.06.06.12.11.16.09.1.22.15.35.15s.26-.05.35-.15c.05-.04.09-.1.11-.16.03-.06.04-.12.04-.19,0-.13-.05-.26-.15-.35-.18-.19-.51-.19-.7,0Z"/>
    </g>
  </g>
</svg>