<?xml version="1.0" encoding="UTF-8"?>
<svg id="_图层_2" data-name="图层 2" xmlns="http://www.w3.org/2000/svg" viewBox="0 0 16 16">
  <defs>
    <style>
      .cls-1 {
        fill: #fff;
      }
    </style>
  </defs>
  <g id="design">
    <g>
      <path class="cls-1" d="m15.5,9.88c-.28,0-.5.22-.5.5v4.62H1V1h4.62c.28,0,.5-.22.5-.5s-.22-.5-.5-.5H.5C.22,0,0,.22,0,.5v15c0,.28.22.5.5.5h15c.28,0,.5-.22.5-.5v-5.12c0-.28-.22-.5-.5-.5Z"/>
      <path class="cls-1" d="m15.96.31c-.05-.12-.15-.22-.27-.27-.06-.03-.13-.04-.19-.04h-5.12c-.28,0-.5.22-.5.5s.22.5.5.5h3.92l-6.65,6.65c-.2.2-.2.51,0,.71.1.1.23.15.35.15s.26-.05.35-.15L15,1.71v3.92c0,.28.22.5.5.5s.5-.22.5-.5V.5c0-.07-.01-.13-.04-.19Z"/>
    </g>
  </g>
</svg>