<?xml version="1.0" encoding="UTF-8"?>
<svg id="_图层_2" data-name="图层 2" xmlns="http://www.w3.org/2000/svg" viewBox="0 0 283.78 17">
  <defs>
    <style>
      .cls-1 {
        fill: #fff;
      }
    </style>
  </defs>
  <g id="design">
    <g>
      <polygon class="cls-1" points="13.65 .6 .48 .6 .36 .6 .36 .96 0 .96 0 1.08 0 2.71 0 2.83 .36 2.83 .36 3.19 .48 3.19 5.55 3.19 5.55 15.7 5.9 15.7 5.9 16.06 7.77 16.06 7.77 15.7 8.13 15.7 8.13 3.19 13.65 3.19 13.65 2.83 14.01 2.83 14.01 .96 13.65 .96 13.65 .6"/>
      <path class="cls-1" d="m49.54,15.85l-6.75-6.83,5.94-7.91v-.35h-2.85v.36h-.36s-4.62,6.09-4.62,6.09c-.2-.2-.42-.42-.65-.64-.23-.22-.44-.44-.65-.66V1.12h-.36v-.36h-1.85v.36h-.36v14.74h.36v.36h1.87v-.36h.36v-6.33l6.39,6.33h0s.36,0,.36,0v.36h3.15v-.36h0Z"/>
      <polygon class="cls-1" points="63.87 9.22 61.18 9.22 61.18 8.56 66.31 1.12 66.31 .76 63.72 .76 63.72 1.12 63.36 1.12 63.36 1.11 59.76 6.19 56.19 1.11 56.19 1.12 55.83 1.12 55.83 .76 53.06 .76 53.06 1.11 58.18 8.56 58.18 9.22 55.75 9.22 55.75 9.58 55.4 9.58 55.4 11.03 55.75 11.03 55.75 11.38 58.18 11.38 58.18 11.99 55.75 11.99 55.75 12.34 55.4 12.34 55.4 13.79 55.75 13.79 55.75 14.15 58.18 14.15 58.18 15.85 58.54 15.85 58.54 16.21 60.82 16.21 60.82 15.85 61.18 15.85 61.18 14.15 63.87 14.15 63.87 13.79 64.23 13.79 64.23 12.34 63.87 12.34 63.87 11.99 61.18 11.99 61.18 11.38 63.87 11.38 63.87 11.03 64.23 11.03 64.23 9.58 63.87 9.58 63.87 9.22"/>
      <polygon class="cls-1" points="167.36 .76 165.54 .76 165.54 1.12 165.18 1.12 165.18 15.85 165.54 15.85 165.54 16.21 167.36 16.21 167.36 15.85 167.72 15.85 167.72 1.12 167.36 1.12 167.36 .76"/>
      <path class="cls-1" d="m141.23,1.18v-.36h-1.94v.36h-.36v12.49h-5.2c-.16,0-.34-.06-.53-.19s-.37-.27-.54-.45c-.17-.18-.31-.35-.42-.54-.11-.18-.16-.34-.16-.47V1.18h-.36v-.36h-1.91v.36h-.36v10.82c0,.35.08.73.24,1.15.16.42.39.82.68,1.21.29.39.64.73,1.03,1.04.39.31.83.53,1.29.66.13.04.3.09.5.14.2.05.34.08.42.08h7.6v-.36h.36V1.18h-.36Z"/>
      <path class="cls-1" d="m160.03,4.52c-.12-.47-.33-.92-.6-1.35-.28-.42-.63-.81-1.06-1.17-.43-.36-.95-.65-1.57-.89-.07-.03-.18-.06-.31-.1-.13-.04-.26-.07-.39-.1-.13-.03-.25-.05-.36-.07-.11-.01-.18-.02-.21-.02h-6.52v.36h-.36v14.74h.36v.36h1.87v-.36h.36v-4.9h4.43c.07.01.19,0,.34-.04s.28-.08.38-.11c.66-.16,1.23-.42,1.71-.78.48-.36.88-.76,1.19-1.22.31-.45.55-.93.7-1.45.15-.51.23-1.01.23-1.49s-.06-.94-.19-1.41Zm-2.59,2.24c-.11.29-.26.55-.45.8-.19.25-.42.45-.69.6-.27.15-.57.23-.89.23h-4.21V3.45h4.21c.07,0,.18.02.31.05.13.04.23.07.31.1.29.1.54.24.75.43.2.18.37.38.49.6s.21.44.26.67c.05.23.08.43.08.62,0,.26-.05.54-.16.82Z"/>
      <path class="cls-1" d="m230.18,15.85l-6.38-15.03-6.38,15.03v.36h2.19v-.36h.36l.92-2.07h5.83l.92,2.08h0s.36,0,.36,0v.36h2.19v-.36h0Zm-8.2-4.66l1.82-4.27,1.82,4.27h-3.64Z"/>
      <polygon class="cls-1" points="266.76 .76 256.32 .76 256.32 1.12 255.96 1.12 255.96 15.85 256.32 15.85 256.32 16.21 266.76 16.21 266.76 15.85 267.12 15.85 267.12 13.94 266.76 13.94 266.76 13.58 258.52 13.58 258.52 9.46 264.37 9.46 264.37 9.1 264.73 9.1 264.73 7.12 264.37 7.12 264.37 6.76 258.52 6.76 258.52 3.37 266.76 3.37 266.76 3.01 267.12 3.01 267.12 1.12 266.76 1.12 266.76 .76"/>
      <polygon class="cls-1" points="248.64 15.85 248.64 .82 241.43 9.24 234.26 .82 234.26 15.85 234.62 15.85 234.62 16.21 236.51 16.21 236.51 15.85 236.87 15.85 236.87 7.99 241.47 13.3 246.01 7.93 246.01 15.85 246.37 15.85 246.37 16.21 248.28 16.21 248.28 15.85 248.64 15.85"/>
      <polygon class="cls-1" points="125.25 .6 112.08 .6 111.96 .6 111.96 .96 111.6 .96 111.6 1.08 111.6 2.71 111.6 2.83 111.96 2.83 111.96 3.19 112.08 3.19 117.15 3.19 117.15 15.7 117.51 15.7 117.51 16.06 119.38 16.06 119.38 15.7 119.73 15.7 119.73 3.19 125.25 3.19 125.25 2.83 125.61 2.83 125.61 .96 125.25 .96 125.25 .6"/>
      <path class="cls-1" d="m31.78,7.56v.03c-.08-.72-.26-1.42-.54-2.08-.39-.94-.94-1.76-1.62-2.47-.69-.7-1.5-1.26-2.44-1.67-.67-.29-1.38-.47-2.13-.56v-.35h-1.87v.35c-.74.09-1.45.27-2.11.55-.94.41-1.76.96-2.46,1.67-.69.7-1.24,1.52-1.63,2.47-.28.67-.46,1.37-.54,2.09v-.04h-.36v1.87h.36v-.04c.08.72.26,1.42.54,2.08.39.94.94,1.76,1.63,2.47.69.71,1.51,1.27,2.46,1.68.66.29,1.37.47,2.11.56v.35h1.87v-.35c.71-.08,1.4-.26,2.06-.53.94-.39,1.75-.94,2.46-1.63.7-.69,1.26-1.51,1.67-2.46.29-.67.47-1.38.56-2.13h0s.36,0,.36,0v-1.87h-.36Zm-2.29,1.87h-.36c-.07.37-.18.72-.34,1.06-.28.61-.67,1.15-1.14,1.6-.48.45-1.02.81-1.63,1.06-.33.14-.67.24-1.02.3h.05v.36h-1.87v-.36h.03c-.37-.07-.73-.17-1.07-.32-.61-.27-1.15-.64-1.62-1.1-.47-.46-.84-1-1.11-1.61-.14-.32-.24-.66-.31-.99h0s-.36,0-.36,0v-1.87h.36c.07-.34.17-.67.31-.99.27-.61.64-1.15,1.11-1.61.47-.46,1.01-.83,1.62-1.1.34-.15.7-.25,1.06-.32h-.02v-.36h1.87v.36h-.03c.37.07.72.17,1.06.32.61.27,1.15.64,1.62,1.1.47.46.84,1,1.11,1.61.14.33.25.66.31,1.01v-.02h.36v1.87Z"/>
      <path class="cls-1" d="m85.14,7.56v.03c-.08-.72-.26-1.42-.54-2.08-.39-.94-.94-1.76-1.62-2.47-.69-.7-1.5-1.26-2.44-1.67-.67-.29-1.38-.47-2.13-.56v-.35h-1.87v.35c-.74.09-1.45.27-2.11.55-.94.41-1.76.96-2.46,1.67-.69.7-1.24,1.52-1.63,2.47-.28.67-.46,1.37-.54,2.09v-.04h-.36v1.87h.36v-.04c.08.72.26,1.42.54,2.08.39.94.94,1.76,1.63,2.47.69.71,1.51,1.27,2.46,1.68.66.29,1.37.47,2.11.56v.35h1.87v-.35c.71-.08,1.4-.26,2.06-.53.94-.39,1.75-.94,2.46-1.63.7-.69,1.26-1.51,1.67-2.46.29-.67.47-1.38.56-2.13h0s.36,0,.36,0v-1.87h-.36Zm-2.29,1.87h-.36c-.07.37-.18.72-.34,1.06-.28.61-.67,1.15-1.14,1.6-.48.45-1.02.81-1.63,1.06-.33.14-.67.24-1.02.3h.05v.36h-1.87v-.36h.03c-.37-.07-.73-.17-1.07-.32-.61-.27-1.15-.64-1.62-1.1-.47-.46-.84-1-1.11-1.61-.14-.32-.24-.66-.31-.99h0s-.36,0-.36,0v-1.87h.36c.07-.34.17-.67.31-.99.27-.61.64-1.15,1.11-1.61.47-.46,1.01-.83,1.62-1.1.34-.15.7-.25,1.06-.32h-.02v-.36h1.87v.36h-.03c.37.07.72.17,1.06.32.61.27,1.15.64,1.62,1.1.47.46.84,1,1.11,1.61.14.33.25.66.31,1.01v-.02h.36v1.87Z"/>
      <path class="cls-1" d="m282.52,8.76c-.55-.43-1.39-.79-2.49-1.05l-.91-.22V3.29c.09.04.19.07.28.12.64.33,1.04.85,1.21,1.55h0s.36,0,.36,0v.36h1.97v-.36h.32c-.16-1.25-.7-2.24-1.63-2.93-.73-.54-1.56-.9-2.5-1.08V.36h-.36v-.36h-1.87v.36h-.36v.52c-1.27.15-2.28.55-3.01,1.21-.93.85-1.4,1.92-1.4,3.2,0,1.42.47,2.42,1.43,3.08.55.38,1.55.74,2.98,1.08v4.49c-.63-.16-1.12-.44-1.46-.85-.22-.27-.39-.65-.5-1.12v.02h-.36v-.36h-1.97v.36h-.33c.12,1.23.65,2.23,1.57,2.96.79.63,1.81,1.03,3.05,1.2v.5h.36v.36h1.87v-.36h.36v-.47c1.31-.15,2.37-.56,3.16-1.24,1-.86,1.5-1.96,1.5-3.26s-.41-2.23-1.27-2.91Zm-7.08-2.31c-.54-.3-.82-.76-.82-1.38,0-.65.27-1.17.81-1.53.3-.21.68-.34,1.1-.43v3.74c-.52-.15-.88-.28-1.09-.4Zm4.28,7.38c-.18.06-.38.11-.6.15v-3.92c.55.16.98.33,1.3.52.49.31.75.75.75,1.32,0,.94-.49,1.59-1.45,1.93Z"/>
      <path class="cls-1" d="m107.09,8.76c-.55-.43-1.39-.79-2.49-1.05l-.91-.22V3.29c.09.04.19.07.28.12.64.33,1.04.85,1.21,1.55h0s.36,0,.36,0v.36h1.97v-.36h.32c-.16-1.25-.7-2.24-1.63-2.93-.73-.54-1.56-.9-2.5-1.08V.36h-.36v-.36h-1.87v.36h-.36v.52c-1.27.15-2.28.55-3.01,1.21-.93.85-1.4,1.92-1.4,3.2,0,1.42.47,2.42,1.43,3.08.55.38,1.55.74,2.98,1.08v4.49c-.63-.16-1.12-.44-1.46-.85-.22-.27-.39-.65-.5-1.12v.02h-.36v-.36h-1.97v.36h-.33c.12,1.23.65,2.23,1.57,2.96.79.63,1.81,1.03,3.05,1.2v.5h.36v.36h1.87v-.36h.36v-.47c1.31-.15,2.37-.56,3.16-1.24,1-.86,1.5-1.96,1.5-3.26s-.41-2.23-1.27-2.91Zm-7.08-2.31c-.54-.3-.82-.76-.82-1.38,0-.65.27-1.17.81-1.53.3-.21.68-.34,1.1-.43v3.74c-.52-.15-.88-.28-1.09-.4Zm4.28,7.38c-.18.06-.38.11-.6.15v-3.92c.55.16.98.33,1.3.52.49.31.75.75.75,1.32,0,.94-.49,1.59-1.45,1.93Z"/>
      <path class="cls-1" d="m187.89,7.58c-.04-.36-.11-.73-.21-1.1-.18-.69-.46-1.35-.84-1.98s-.88-1.22-1.49-1.76c-.61-.54-1.33-1-2.18-1.38-.07-.04-.22-.1-.44-.16-.22-.07-.45-.13-.7-.2-.25-.07-.49-.12-.73-.16-.24-.04-.42-.07-.54-.07h-5.52v.36h-.36v14.74h.36v.36h5.52s.14,0,.27-.02c.14-.01.3-.04.48-.08.18-.04.37-.07.55-.11.18-.04.33-.08.45-.12.95-.28,1.77-.69,2.46-1.25.69-.56,1.25-1.17,1.69-1.85.44-.68.76-1.39.98-2.14.12-.41.2-.8.25-1.19h.35v-1.87h-.34Zm-2.28,1.87h-.36c-.07.37-.18.73-.34,1.08-.29.63-.67,1.17-1.14,1.62-.48.45-1.03.81-1.65,1.06-.63.26-1.28.38-1.95.38h-2.72V3.39h2.83c.72,0,1.38.14,2.01.43.62.28,1.16.67,1.61,1.14.45.48.81,1.02,1.06,1.63.14.33.23.66.3.99h.36v1.87Z"/>
      <path class="cls-1" d="m212.81,9.07v-.36h-6.98v.36h-.36v1.32h.36v.36h4.77c-.26.56-.58,1.02-.95,1.38-.37.37-.77.65-1.18.86-.42.2-.83.35-1.25.43s-.79.12-1.13.12c-.67,0-1.32-.13-1.93-.39s-1.16-.62-1.63-1.08c-.48-.46-.85-.99-1.13-1.6-.15-.33-.26-.67-.33-1.03h-.35v-1.87h.35c.07-.36.18-.71.33-1.04.28-.61.65-1.15,1.13-1.6.47-.45,1.02-.81,1.63-1.07s1.26-.39,1.93-.39c.75,0,1.45.14,2.13.43.57.24,1.15.69,1.74,1.35h0s.36,0,.36,0v.36h2.77v-.34c-.33-.74-.74-1.39-1.24-1.93-.58-.62-1.2-1.12-1.87-1.49-.67-.37-1.35-.64-2.03-.81-.68-.17-1.3-.25-1.85-.25-1.1,0-2.12.2-3.06.61-.94.41-1.76.96-2.46,1.67-.69.7-1.24,1.52-1.63,2.47-.28.66-.45,1.35-.53,2.06h-.35v1.87h.35c.08.71.26,1.39.53,2.05.39.94.94,1.76,1.63,2.47.69.71,1.51,1.27,2.46,1.68.94.41,1.96.61,3.06.61.39,0,.81-.03,1.24-.1.43-.07.86-.17,1.29-.32.43-.15.85-.34,1.27-.58.42-.24.81-.53,1.19-.87v1.48h.36v.36h1.37v-.36h.36v-6.78h-.36Z"/>
    </g>
  </g>
</svg>