<?xml version="1.0" encoding="UTF-8"?>
<svg id="_图层_2" data-name="图层 2" xmlns="http://www.w3.org/2000/svg" viewBox="0 0 50 50">
  <defs>
    <style>
      .cls-1 {
        fill: #fff;
      }

      .cls-2 {
        opacity: .5;
      }

      .cls-3 {
        fill: #65b2fb;
      }

      .cls-4 {
        fill: #df6417;
      }
    </style>
  </defs>
  <g id="design">
    <g>
      <circle class="cls-1" cx="25" cy="25" r="25"/>
      <g>
        <circle class="cls-3" cx="25" cy="25" r="15"/>
        <path class="cls-2" d="m33.44,31.23c-1.69.22-4.79.78-8.44.78s-6.76-.56-8.44-.78c-.97-.13-1.37.27-1.2.69.74,1.86,3.07,5.72,9.64,5.72s8.9-3.86,9.64-5.72c.17-.43-.23-.82-1.2-.69Z"/>
        <path class="cls-4" d="m20.77,32.34h8.47c.26,0,.47.21.47.47v6.57c0,2.21-1.79,4-4,4h-1.41c-2.21,0-4-1.79-4-4v-6.57c0-.26.21-.47.47-.47Z"/>
        <g>
          <path class="cls-2" d="m33.39,19.8c.06-.12-.02-.26-.16-.26h-.76c-.23,0-.43.13-.53.34l-1.31,2.77c-.04.08-.15.08-.19,0l-1.31-2.77c-.1-.21-.3-.34-.53-.34h-.76c-.13,0-.22.14-.16.26l1.71,3.33c.04.08-.02.17-.1.17h-.95c-.2,0-.35.16-.35.35v.3c0,.19.16.35.35.35h1.17c.2,0,.35.16.35.35v.29c0,.19-.16.35-.35.35h-1.17c-.2,0-.35.16-.35.35v.3c0,.19.16.35.35.35h1.17c.2,0,.35.16.35.35v.97c0,.19.16.35.35.35h.64c.2,0,.35-.16.35-.35v-.97c0-.19.16-.35.35-.35h1.17c.2,0,.35-.16.35-.35v-.3c0-.19-.16-.35-.35-.35h-1.17c-.2,0-.35-.16-.35-.35v-.29c0-.19.16-.35.35-.35h1.17c.2,0,.35-.16.35-.35v-.3c0-.19-.16-.35-.35-.35h-.95c-.09,0-.14-.09-.1-.17l1.71-3.33Z"/>
          <path class="cls-2" d="m22.16,19.55h-.76c-.23,0-.43.13-.53.34l-1.31,2.77c-.04.08-.15.08-.19,0l-1.31-2.77c-.1-.21-.3-.34-.53-.34h-.76c-.13,0-.22.14-.16.26l1.71,3.33c.04.08-.02.17-.1.17h-.95c-.19,0-.35.16-.35.35v.3c0,.19.16.35.35.35h1.17c.2,0,.35.16.35.35v.29c0,.19-.16.35-.35.35h-1.17c-.19,0-.35.16-.35.35v.3c0,.19.16.35.35.35h1.17c.2,0,.35.16.35.35v.97c0,.19.16.35.35.35h.64c.2,0,.35-.16.35-.35v-.97c0-.19.16-.35.35-.35h1.17c.2,0,.35-.16.35-.35v-.3c0-.19-.16-.35-.35-.35h-1.17c-.19,0-.35-.16-.35-.35v-.29c0-.19.16-.35.35-.35h1.17c.2,0,.35-.16.35-.35v-.3c0-.19-.16-.35-.35-.35h-.95c-.09,0-.14-.09-.1-.17l1.71-3.33c.06-.12-.02-.26-.16-.26Z"/>
          <path class="cls-2" d="m25.68,37.24c-.14-.05-.23-.18-.23-.32,0-.43,0-1.3,0-1.7,0-.12.11-.2.22-.16.28.09.47.3.58.49.09.14.26.19.41.13l.1-.04c.19-.08.27-.31.17-.49-.24-.41-.66-.85-1.33-.98-.09-.02-.16-.1-.16-.2h0c0-.19-.15-.34-.34-.34h-.03c-.19,0-.34.15-.34.34,0,.09-.06.18-.15.2-.9.2-1.51.91-1.51,1.83,0,.8.6,1.49,1.36,1.8.19.08.31.26.31.47v1.76c0,.12-.13.2-.24.16-.33-.14-.59-.41-.75-.77-.07-.16-.25-.24-.42-.18l-.08.03c-.2.07-.29.28-.22.46.27.65.79,1.11,1.46,1.28.15.04.26.17.26.32h0c0,.16.12.29.28.29h.15c.15,0,.28-.12.28-.28h0c0-.16.11-.29.26-.33.9-.23,1.52-.96,1.52-1.86s-.66-1.58-1.56-1.89Zm-.94-.48c0,.13-.13.21-.25.15-.39-.18-.64-.52-.64-.97,0-.42.24-.72.65-.88.11-.04.24.04.24.16v1.53Zm.71,3.27v-1.77c0-.12.12-.21.23-.16.48.2.76.59.76,1.06s-.3.86-.76,1.03c-.11.04-.23-.05-.23-.16Z"/>
          <path class="cls-2" d="m35.34,16.79c-2.7-2.91-6.33-1.48-6.33-1.48,0,0-.39.17-.31.44,0,0,.09.35.76.36,0,0,2.55-.1,5.05.94,0,0,.57.27.82.1.19-.13,0-.34,0-.34Z"/>
          <path class="cls-2" d="m20.99,15.31s-3.63-1.43-6.33,1.48c0,0-.19.21,0,.34.25.18.82-.1.82-.1,2.5-1.04,5.05-.94,5.05-.94.67,0,.76-.36.76-.36.08-.26-.31-.44-.31-.44Z"/>
        </g>
      </g>
    </g>
  </g>
</svg>