<?xml version="1.0" encoding="UTF-8"?>
<svg id="_图层_2" data-name="图层 2" xmlns="http://www.w3.org/2000/svg" viewBox="0 0 20.46 18">
  <defs>
    <style>
      .cls-1 {
        fill: #fff;
      }
    </style>
  </defs>
  <g id="design">
    <path class="cls-1" d="m20.14,5.57c-.29-.36-.72-.57-1.18-.57h-5.16l-1.48-3.5c-.39-.92-1.19-1.5-2.09-1.5s-1.7.57-2.09,1.5l-1.48,3.5H1.5c-.46,0-.89.21-1.18.57-.29.36-.39.83-.28,1.28l2.33,9.62c.22.9,1.02,1.53,1.94,1.53h11.83c.93,0,1.73-.63,1.94-1.53l2.33-9.62c.11-.45,0-.92-.28-1.28ZM9.06,1.89c.23-.56.67-.89,1.17-.89s.93.33,1.17.89l1.31,3.11h-4.96l1.31-3.11Zm10.38,4.73l-2.33,9.62c-.11.45-.51.76-.97.76H4.31c-.46,0-.86-.31-.97-.76L1.01,6.62c-.04-.15,0-.31.09-.43.1-.12.24-.19.39-.19h4.74l-.97,2.31c-.11.25.01.55.27.66.25.11.55-.01.65-.27l1.14-2.69h5.81l1.14,2.69c.08.19.27.31.46.31.06,0,.13-.01.19-.04.25-.11.37-.4.27-.66l-.97-2.31h4.74c.15,0,.3.07.39.19.1.12.13.28.09.43Z"/>
  </g>
</svg>